<?xml version="1.0" encoding="UTF-8"?>
<svg id="b" data-name="Layer 2" xmlns="http://www.w3.org/2000/svg" viewBox="0 0 2048 1024">
  <defs>
    <style>
      .c, .d {
        fill: #294784;
      }

      .d {
        opacity: .98;
      }
    </style>
  </defs>
  <g>
    <path class="d" d="M939.11,680.54c8.8-15.7,21.21-27.95,37.2-36.76,15.99-8.81,34.51-13.21,55.58-13.21,12.06,0,23.12,1.39,33.17,4.16,10.05,2.78,18.14,6.51,24.27,11.2,6.13,4.69,9.19,9.91,9.19,15.65,0,3.64-1.34,7.52-4.02,11.63-2.68,4.12-5.94,7.23-9.77,9.33-5.36-6.13-13.12-11.2-23.26-15.22-10.15-4.02-20.39-6.03-30.73-6.03-13.6,0-25.61,3.11-36.05,9.33-10.44,6.22-18.53,14.84-24.27,25.85-5.74,11.01-8.62,23.89-8.62,38.63s3.02,26.9,9.05,37.62c6.03,10.73,14.46,19.06,25.27,24.99,10.82,5.94,23.5,8.9,38.06,8.9,9.19,0,18.38-1.19,27.57-3.59,9.19-2.39,16.75-5.6,22.69-9.62l15.51,26.14c-7.66,5.56-17.71,10.01-30.16,13.36-12.45,3.35-25.37,5.03-38.77,5.03-20.68,0-38.92-4.36-54.71-13.07-15.8-8.71-28.15-20.77-37.05-36.19-8.9-15.41-13.36-33.27-13.36-53.57s4.4-38.87,13.21-54.57Z"/>
    <path class="d" d="M1125.23,654.4c0-10.34,5.26-16.56,15.8-18.67,4.6-.96,11.49-1.67,20.68-2.15,9.19-.48,19.34-.72,30.45-.72,29.1,0,51.51,5.75,67.21,17.23,15.7,11.49,23.55,27.86,23.55,49.12s-7.47,37.87-22.4,49.26c-14.93,11.39-36.58,17.09-64.91,17.09-4.21,0-9-.19-14.36-.58-5.36-.38-12.92-1.15-22.69-2.3v70.08h-33.32v-178.36ZM1247.87,699.21c0-24.89-18.86-37.34-56.58-37.34-6.51,0-13.02.19-19.53.57-6.51.39-10.92.77-13.21,1.15v70.08c3.45.77,8.62,1.44,15.51,2.01,6.89.57,13.31.86,19.24.86,36.38,0,54.57-12.44,54.57-37.34Z"/>
    <path class="d" d="M1531.93,832.77h-33.6l-8.33-146.77c-2.3,4.41-5.27,10.29-8.9,17.66-3.64,7.37-7.61,15.42-11.92,24.13-4.31,8.71-8.57,17.43-12.78,26.14-4.21,8.71-8.04,16.61-11.49,23.7-3.45,7.09-6.13,12.64-8.04,16.66h-28.15c-3.07-6.89-6.99-15.22-11.78-24.99-4.79-9.77-9.72-19.91-14.79-30.45-5.08-10.53-9.96-20.39-14.65-29.58-4.69-9.19-8.67-16.75-11.92-22.69l-7.75,146.19h-33.89l10.05-178.08c.38-5.93,2.39-10.58,6.03-13.93,3.63-3.35,8.71-5.03,15.22-5.03,4.21,0,8.42.67,12.64,2.01,4.21,1.34,7.56,3.16,10.05,5.46,3.25,5.94,9.57,18.24,18.96,36.91,9.38,18.67,21.64,43.42,36.76,74.25,4.4-9,9.09-18.57,14.07-28.72,4.98-10.15,9.86-20.06,14.65-29.73,4.78-9.67,9.14-18.33,13.07-25.99,3.92-7.66,6.84-13.4,8.76-17.23,5.74-11.3,14.26-16.95,25.56-16.95,3.83,0,7.9.57,12.21,1.72,4.31,1.15,7.32,2.49,9.05,4.02l10.91,191.29Z"/>
    <path class="d" d="M1564.95,767.57c0-17.42,3.11-32.31,9.33-44.66,6.22-12.35,14.98-21.83,26.28-28.43,11.3-6.61,24.7-9.91,40.21-9.91s29.49,3.26,41.36,9.77c11.87,6.51,21.16,15.51,27.86,27,6.7,11.49,10.05,24.61,10.05,39.35s-3.26,27.57-9.77,39.06c-6.51,11.49-15.32,20.54-26.42,27.14-11.11,6.61-23.55,9.91-37.34,9.91-10.53,0-19.96-1.97-28.29-5.89-8.33-3.92-15.18-9.33-20.54-16.23v75.54h-32.74v-122.64ZM1673.81,794.85c8.23-8.62,12.35-19.91,12.35-33.89s-4.12-25.28-12.35-33.89c-8.24-8.62-18.86-12.92-31.88-12.92s-23.7,4.31-32.03,12.92c-8.33,8.62-12.49,19.92-12.49,33.89s4.17,25.28,12.49,33.89,19,12.92,32.03,12.92,23.65-4.31,31.88-12.92Z"/>
    <path class="d" d="M1887.79,817.54c0,24.89-6.61,43.7-19.82,56.44-13.21,12.73-32.07,19.1-56.58,19.1-9.96,0-20.3-.96-31.02-2.87-10.73-1.92-19.82-4.31-27.29-7.18l8.33-24.41c3.45,1.53,7.85,2.92,13.21,4.17,5.36,1.24,10.96,2.2,16.8,2.87,5.84.67,11.34,1,16.51,1,15.51,0,27.38-3.5,35.62-10.48,8.23-6.99,12.35-18.05,12.35-33.17v-8.04c-3.64,5.56-9.33,10.01-17.09,13.36-7.75,3.35-17,5.03-27.72,5.03-12.45,0-23.46-2.34-33.03-7.04-9.58-4.69-17.04-11.44-22.4-20.25-5.36-8.81-8.04-19.15-8.04-31.02v-71.23c0-4.98,1.58-8.76,4.74-11.34,3.16-2.58,7.32-3.88,12.49-3.88,2.68,0,5.46.29,8.33.86,2.87.57,5.26,1.34,7.18,2.3v76.69c0,11.87,3.25,21.02,9.77,27.43,6.51,6.42,15.6,9.62,27.29,9.62,12.25,0,21.59-3.49,28-10.48,6.41-6.99,9.62-16.9,9.62-29.73v-61.46c0-4.98,1.58-8.76,4.74-11.34,3.16-2.58,7.32-3.88,12.49-3.88,2.68,0,5.46.29,8.33.86,2.87.57,5.26,1.34,7.18,2.3v125.8Z"/>
  </g>
  <path class="c" d="M712.25,522.01c-18.71,0-36.96.46-54.56,1.32-1.85.09-3.75-1.22-3.75-3.08-.07-25.63-8.29-52.17-29.42-66.34-2.64-1.77-1.96-5.84,1.15-6.58,45.9-11.05,64.16-24.87,64.16-41.91,0-30.02-86.37-55.09-206.69-60.94-1.39-.06-2.62-.91-3.45-2.02-.85-1.17-1.62-2.3-2.29-4.1-4.58-12.36-.46-40.52,19.66-60.37,20.73-20.45,49.27-32.91,88.92-30.23,36.87,2.5,89.35,15.16,152.39,79.78,14.81,15.18,47.37,25.66,75.25,25.22.76-.01,1.52-.04,2.27-.06,1.57-.06,3,.91,3.53,2.39,7.1,19.87,11.14,41.78,12.39,67.11,8.95-9.81,10.4-26.74,10.31-29.2-.29-7.31-3.13-23.63-5.1-40.3-.2-1.7.87-3.86,2.34-4.74,3.41-2.05,13.35-7.54,15.7-10.5,21.45-27.04-29.28-103.63-56.32-125.07-71.85-56.99-127.39-75.42-205.62-80.71-36.14-2.45-70.81,1.05-103.11,10.4-32.41,9.38-60.84,24.15-84.48,43.9-49.22,41.12-70.62,98.58-60.97,156.13.35,2.13-1.21,4.09-3.36,4.25-105.17,8.24-180.99,31.57-180.99,59.06,0,34.36,118.56,62.22,264.81,62.22,10.52,0,20.88-.14,31.08-.42,50.99,1.01,76.76,9.99,81.96,66.82.16,1.86-1.09,3.55-2.91,3.94-53.85,11.38-87.72,27.9-87.72,46.27,0,28.71,82.78,52.89,195.32,60.07,2.92.17,4.46,3.57,2.65,5.86-11.06,14.05-17.57,30.45-19.95,57.06-.17,1.99-1.9,3.47-3.87,3.34-22.61-1.48-46.43-2.27-71.03-2.27-63.83,0-122.37,5.31-168.1,14.15-12.63,2.44-25.77,1.25-37.58-3.84-24.71-10.65-23.25-28.38-16.05-61.49.68-3.09-2.66-5.54-5.4-3.94-64.65,37.87-63.75,98.42-33.17,128.84,26.12,26.02,130.75,50.74,260.3,50.74,146.25,0,264.81-27.86,264.81-62.23,0-15.56-24.32-29.79-64.51-40.7-1.63-.45-2.77-1.94-2.74-3.63,1.1-57.25,17.21-77.8,52.91-83.32,11.11-1.72,22.07-2.05,32.52-3.32,85.24-10.34,143.52-31.23,143.52-55.32,0-34.38-118.56-62.24-264.81-62.24ZM785.61,248.12c12.41,0,22.47,10.06,22.47,22.47s-10.06,22.47-22.47,22.47-22.47-10.06-22.47-22.47,10.06-22.47,22.47-22.47ZM215.72,403.06c0-19.07,48.39-35.45,117.42-42.47-48.69,9.49-80.39,24.98-80.39,42.47s31.74,33,80.47,42.49c-69.07-7.03-117.5-23.4-117.5-42.49ZM633.94,508.53c-4.91-30.33-25.77-46.21-44.64-54.78,28.96,3.83,46.18,25.25,44.64,54.78ZM599.39,499.26c-3.61-22.28-18.95-33.94-32.82-40.25,21.28,2.82,33.94,18.56,32.82,40.25ZM565.73,387.45c0-10.85-20.9-20.53-53.6-26.86,39.5,5.69,65.93,16.05,65.93,27.89,0,16.5-51.39,30.14-118,32.26,60.95-4.06,105.67-17.43,105.67-33.29ZM507.54,451.54c-34.48,2.38-66.3,1.65-91.33-1.51,18.97.52,39.61.09,61.17-1.39,90.29-6.24,162.27-28.79,160.78-50.37-.06-.87-.24-1.71-.53-2.55,6.55,3.42,10.28,7.37,10.58,11.75,1.31,18.89-61.67,38.62-140.67,44.07ZM598.4,586.58c53.1,0,96.14-10.29,96.14-22.99,0-3.69-3.65-7.19-10.13-10.28,15.96,4.1,25.71,9.6,25.71,15.65,0,12.69-43.05,22.99-96.15,22.99-37.63,0-70.22-5.17-86.01-12.71,17.56,4.52,42.62,7.34,70.44,7.34ZM637.39,790.59c19.31,0,37.7-.95,54.42-2.67-21.54,3.63-47.74,5.75-75.98,5.75-73.53,0-133.14-14.4-133.14-32.16,0-8.37,13.24-16,34.94-21.72-12.37,5.03-19.47,10.9-19.47,17.17,0,18.57,62.33,33.63,139.23,33.63ZM648.88,704.42c-5.77-38.23,16.24-59.72,36.67-54.94-8.5.46-35.72,16.3-36.67,54.94ZM709.68,649.97c-4.72,1.95-27.86,13.56-30.75,42.64-3.87-30.3,15.27-44.67,30.75-42.64ZM579.95,816.43c-105.07,0-190.23-20.58-190.23-45.95s85.16-45.96,190.23-45.96c4.63,0,9.23.04,13.78.12-90.49,1.66-161.77,19.93-161.77,42.22,0,23.38,78.46,42.34,175.26,42.34,57.4,0,108.36-6.67,140.33-16.98-32.12,14.41-95.12,24.21-167.6,24.21ZM700.59,628.27c-70.78,0-132.05-9.73-161.73-23.89,33.01,8.5,80.14,13.81,132.45,13.81,99.84,0,180.78-19.36,180.78-43.23,0-6.96-6.87-13.52-19.07-19.34,30.01,7.71,48.36,18.06,48.36,29.42,0,23.88-80.94,43.23-180.79,43.23Z"/>
</svg>