<?xml version="1.0" encoding="UTF-8"?>
<svg id="b" data-name="Layer 2" xmlns="http://www.w3.org/2000/svg" viewBox="0 0 1024 1024">
  <defs>
    <style>
      .c, .d {
        fill: #294784;
      }

      .d {
        opacity: .98;
      }
    </style>
  </defs>
  <g>
    <path class="d" d="M204.72,832.84c5.76-10.27,13.87-18.28,24.32-24.04,10.45-5.76,22.57-8.64,36.34-8.64,7.89,0,15.12.91,21.69,2.72,6.57,1.82,11.86,4.26,15.87,7.33,4.01,3.07,6.01,6.48,6.01,10.24,0,2.38-.88,4.92-2.63,7.61-1.75,2.69-3.88,4.73-6.39,6.1-3.51-4.01-8.58-7.33-15.21-9.95-6.64-2.63-13.34-3.95-20.1-3.95-8.89,0-16.75,2.04-23.57,6.1-6.83,4.07-12.12,9.71-15.87,16.91-3.76,7.2-5.63,15.62-5.63,25.26s1.97,17.59,5.92,24.61c3.94,7.01,9.45,12.46,16.53,16.34,7.07,3.88,15.37,5.82,24.89,5.82,6.01,0,12.02-.78,18.03-2.35,6.01-1.56,10.96-3.66,14.84-6.29l10.14,17.09c-5.01,3.63-11.58,6.54-19.72,8.73-8.14,2.19-16.59,3.29-25.36,3.29-13.52,0-25.45-2.85-35.78-8.55-10.33-5.7-18.41-13.59-24.23-23.67-5.82-10.08-8.73-21.76-8.73-35.03s2.88-25.42,8.64-35.69Z"/>
    <path class="d" d="M326.43,815.74c0-6.76,3.44-10.83,10.33-12.21,3-.62,7.51-1.09,13.52-1.41,6.01-.31,12.65-.47,19.91-.47,19.03,0,33.68,3.76,43.95,11.27,10.27,7.51,15.4,18.22,15.4,32.12s-4.88,24.76-14.65,32.21c-9.77,7.45-23.92,11.18-42.45,11.18-2.76,0-5.89-.12-9.39-.38-3.51-.25-8.45-.75-14.84-1.5v45.83h-21.79v-116.64ZM406.63,845.04c0-16.28-12.34-24.42-37-24.42-4.26,0-8.52.13-12.77.38-4.26.25-7.14.5-8.64.75v45.83c2.25.5,5.63.94,10.14,1.31s8.7.56,12.58.56c23.79,0,35.69-8.14,35.69-24.42Z"/>
    <path class="d" d="M592.39,932.38h-21.98l-5.45-95.98c-1.5,2.88-3.45,6.73-5.82,11.55-2.38,4.82-4.98,10.08-7.79,15.78-2.82,5.7-5.61,11.4-8.36,17.09-2.76,5.7-5.26,10.87-7.51,15.5-2.25,4.63-4.01,8.26-5.26,10.89h-18.41c-2-4.51-4.57-9.96-7.7-16.34-3.13-6.39-6.36-13.02-9.67-19.91-3.32-6.89-6.51-13.34-9.58-19.35-3.07-6.01-5.67-10.96-7.79-14.84l-5.07,95.61h-22.16l6.57-116.45c.25-3.88,1.56-6.92,3.94-9.11,2.38-2.19,5.7-3.29,9.96-3.29,2.75,0,5.51.44,8.26,1.32,2.75.88,4.95,2.07,6.57,3.57,2.13,3.88,6.26,11.93,12.4,24.14,6.13,12.21,14.15,28.39,24.04,48.55,2.88-5.88,5.95-12.14,9.2-18.78,3.25-6.64,6.45-13.12,9.58-19.44,3.13-6.32,5.98-11.99,8.55-17,2.56-5.01,4.48-8.76,5.73-11.27,3.76-7.39,9.33-11.08,16.72-11.08,2.5,0,5.17.38,7.98,1.13,2.82.75,4.79,1.63,5.92,2.63l7.14,125.09Z"/>
    <path class="d" d="M613.99,889.75c0-11.39,2.03-21.13,6.1-29.21,4.07-8.08,9.8-14.28,17.19-18.6,7.39-4.32,16.15-6.48,26.3-6.48s19.28,2.13,27.05,6.39c7.76,4.26,13.83,10.14,18.22,17.66,4.38,7.51,6.57,16.09,6.57,25.73s-2.13,18.03-6.39,25.54c-4.26,7.51-10.02,13.43-17.28,17.75-7.26,4.32-15.4,6.48-24.42,6.48-6.89,0-13.05-1.29-18.5-3.85-5.45-2.57-9.93-6.1-13.43-10.61v49.4h-21.41v-80.2ZM685.18,907.59c5.38-5.63,8.08-13.02,8.08-22.16s-2.69-16.53-8.08-22.16c-5.39-5.63-12.34-8.45-20.85-8.45s-15.5,2.82-20.94,8.45c-5.45,5.63-8.17,13.02-8.17,22.16s2.72,16.53,8.17,22.16c5.45,5.64,12.43,8.45,20.94,8.45s15.46-2.82,20.85-8.45Z"/>
    <path class="d" d="M825.11,922.43c0,16.28-4.32,28.58-12.96,36.91-8.64,8.33-20.98,12.49-37,12.49-6.51,0-13.27-.63-20.29-1.88-7.01-1.25-12.96-2.82-17.84-4.7l5.45-15.97c2.25,1,5.13,1.91,8.64,2.72,3.5.81,7.17,1.44,10.99,1.88,3.82.44,7.42.66,10.8.66,10.14,0,17.91-2.29,23.29-6.86,5.38-4.57,8.08-11.8,8.08-21.69v-5.26c-2.38,3.63-6.1,6.54-11.18,8.73-5.07,2.19-11.11,3.29-18.13,3.29-8.14,0-15.34-1.53-21.6-4.6-6.26-3.07-11.15-7.48-14.65-13.24-3.51-5.76-5.26-12.52-5.26-20.29v-46.58c0-3.25,1.03-5.73,3.1-7.42s4.79-2.54,8.17-2.54c1.75,0,3.57.19,5.45.56,1.88.38,3.44.88,4.7,1.5v50.15c0,7.77,2.13,13.74,6.39,17.94,4.26,4.2,10.21,6.29,17.84,6.29,8.01,0,14.12-2.28,18.31-6.86,4.19-4.57,6.29-11.05,6.29-19.44v-40.2c0-3.25,1.03-5.73,3.1-7.42s4.79-2.54,8.17-2.54c1.75,0,3.57.19,5.45.56,1.88.38,3.44.88,4.7,1.5v82.27Z"/>
  </g>
  <path class="c" d="M655.62,443.26c-18.71,0-36.96.46-54.56,1.32-1.85.09-3.75-1.22-3.75-3.08-.07-25.63-8.29-52.17-29.42-66.34-2.64-1.77-1.96-5.84,1.15-6.58,45.9-11.05,64.16-24.87,64.16-41.91,0-30.02-86.37-55.09-206.69-60.94-1.39-.06-2.62-.91-3.45-2.02-.85-1.17-1.62-2.3-2.29-4.1-4.58-12.36-.46-40.52,19.66-60.37,20.73-20.45,49.27-32.91,88.92-30.23,36.87,2.5,89.35,15.16,152.39,79.78,14.81,15.18,47.37,25.66,75.25,25.22.76-.01,1.52-.04,2.27-.06,1.57-.06,3,.91,3.53,2.39,7.1,19.87,11.14,41.78,12.39,67.11,8.95-9.81,10.4-26.74,10.31-29.2-.29-7.31-3.13-23.63-5.1-40.3-.2-1.7.87-3.86,2.34-4.74,3.41-2.05,13.35-7.54,15.7-10.5,21.45-27.04-29.28-103.63-56.32-125.07-71.85-56.99-127.39-75.42-205.62-80.71-36.14-2.45-70.81,1.05-103.11,10.4-32.41,9.38-60.84,24.15-84.48,43.9-49.22,41.12-70.62,98.58-60.97,156.13.35,2.13-1.21,4.09-3.36,4.25-105.17,8.24-180.99,31.57-180.99,59.06,0,34.36,118.56,62.22,264.81,62.22,10.52,0,20.88-.14,31.08-.42,50.99,1.01,76.76,9.99,81.96,66.82.16,1.86-1.09,3.55-2.91,3.94-53.85,11.38-87.72,27.9-87.72,46.27,0,28.71,82.78,52.89,195.32,60.07,2.92.17,4.46,3.57,2.65,5.86-11.06,14.05-17.57,30.45-19.95,57.06-.17,1.99-1.9,3.47-3.87,3.34-22.61-1.48-46.43-2.27-71.03-2.27-63.83,0-122.37,5.31-168.1,14.15-12.63,2.44-25.77,1.25-37.58-3.84-24.71-10.65-23.25-28.38-16.05-61.49.68-3.09-2.66-5.54-5.4-3.94-64.65,37.87-63.75,98.42-33.17,128.84,26.12,26.02,130.75,50.74,260.3,50.74,146.25,0,264.81-27.86,264.81-62.23,0-15.56-24.32-29.79-64.51-40.7-1.63-.45-2.77-1.94-2.74-3.63,1.1-57.25,17.21-77.8,52.91-83.32,11.11-1.72,22.07-2.05,32.52-3.32,85.24-10.34,143.52-31.23,143.52-55.32,0-34.38-118.56-62.24-264.81-62.24ZM728.98,169.37c12.41,0,22.47,10.06,22.47,22.47s-10.06,22.47-22.47,22.47-22.47-10.06-22.47-22.47,10.06-22.47,22.47-22.47ZM159.09,324.31c0-19.07,48.39-35.45,117.42-42.47-48.69,9.49-80.39,24.98-80.39,42.47s31.74,33,80.47,42.49c-69.07-7.03-117.5-23.4-117.5-42.49ZM577.3,429.78c-4.91-30.33-25.77-46.21-44.64-54.78,28.96,3.83,46.18,25.25,44.64,54.78ZM542.76,420.51c-3.61-22.28-18.95-33.94-32.82-40.25,21.28,2.82,33.94,18.56,32.82,40.25ZM509.1,308.7c0-10.85-20.9-20.53-53.6-26.86,39.5,5.69,65.93,16.05,65.93,27.89,0,16.5-51.39,30.14-118,32.26,60.95-4.06,105.67-17.43,105.67-33.29ZM450.91,372.79c-34.48,2.38-66.3,1.65-91.33-1.51,18.97.52,39.61.09,61.17-1.39,90.29-6.24,162.27-28.79,160.78-50.37-.06-.87-.24-1.71-.53-2.55,6.55,3.42,10.28,7.37,10.58,11.75,1.31,18.89-61.67,38.62-140.67,44.07ZM541.76,507.83c53.1,0,96.14-10.29,96.14-22.99,0-3.69-3.65-7.19-10.13-10.28,15.96,4.1,25.71,9.6,25.71,15.65,0,12.69-43.05,22.99-96.15,22.99-37.63,0-70.22-5.17-86.01-12.71,17.56,4.52,42.62,7.34,70.44,7.34ZM580.75,711.84c19.31,0,37.7-.95,54.42-2.67-21.54,3.63-47.74,5.75-75.98,5.75-73.53,0-133.14-14.4-133.14-32.16,0-8.37,13.24-16,34.94-21.72-12.37,5.03-19.47,10.9-19.47,17.17,0,18.57,62.33,33.63,139.23,33.63ZM592.24,625.67c-5.77-38.23,16.24-59.72,36.67-54.94-8.5.46-35.72,16.3-36.67,54.94ZM653.04,571.22c-4.72,1.95-27.86,13.56-30.75,42.64-3.87-30.3,15.27-44.67,30.75-42.64ZM523.32,737.68c-105.07,0-190.23-20.58-190.23-45.95s85.16-45.96,190.23-45.96c4.63,0,9.23.04,13.78.12-90.49,1.66-161.77,19.93-161.77,42.22,0,23.38,78.46,42.34,175.26,42.34,57.4,0,108.36-6.67,140.33-16.98-32.12,14.41-95.12,24.21-167.6,24.21ZM643.96,549.52c-70.78,0-132.05-9.73-161.73-23.89,33.01,8.5,80.14,13.81,132.45,13.81,99.84,0,180.78-19.36,180.78-43.23,0-6.96-6.87-13.52-19.07-19.34,30.01,7.71,48.36,18.06,48.36,29.42,0,23.88-80.94,43.23-180.79,43.23Z"/>
</svg>